<?xml version="1.0" encoding="UTF-8"?>
<svg xmlns="http://www.w3.org/2000/svg" xmlns:xlink="http://www.w3.org/1999/xlink" width="px" height="px" viewBox="0 0 16 16" version="1.1">
<g id="surface1">
<path style=" stroke:none;fill-rule:evenodd;fill:rgb(7.058824%,7.45098%,7.45098%);fill-opacity:1;" d="M 0.144531 8.375 L 7.617188 15.847656 C 7.71875 15.949219 7.851562 15.996094 7.984375 15.996094 C 7.988281 15.996094 7.988281 15.996094 7.992188 15.996094 L 15.492188 15.996094 C 15.769531 15.996094 15.992188 15.773438 15.992188 15.496094 C 15.992188 15.492188 15.992188 15.492188 15.992188 15.488281 C 15.992188 15.355469 15.945312 15.222656 15.84375 15.121094 L 8.71875 8 L 15.859375 0.859375 C 16.058594 0.660156 16.058594 0.335938 15.859375 0.132812 C 15.738281 0.015625 15.578125 -0.0234375 15.421875 -0.00390625 L 8.066406 -0.00390625 C 7.914062 -0.0234375 7.75 0.015625 7.632812 0.132812 L 0.144531 7.621094 C 0.0429688 7.722656 -0.00390625 7.859375 0 7.996094 C -0.00390625 8.132812 0.0429688 8.269531 0.144531 8.375 Z M 8.21875 0.996094 L 14.269531 0.996094 L 7.644531 7.621094 C 7.542969 7.722656 7.496094 7.859375 7.5 7.996094 C 7.496094 8.132812 7.542969 8.269531 7.644531 8.375 L 14.269531 14.996094 L 8.21875 14.996094 L 1.21875 8 Z M 8.21875 0.996094 "/>
</g>
</svg>
