<?xml version="1.0" encoding="UTF-8"?>
<svg xmlns="http://www.w3.org/2000/svg" xmlns:xlink="http://www.w3.org/1999/xlink" width="px" height="px" viewBox="0 0 16 16" version="1.1">
<g id="surface1">
<path style=" stroke:none;fill-rule:evenodd;fill:rgb(7.058824%,7.45098%,7.45098%);fill-opacity:1;" d="M 15.851562 7.609375 L 8.378906 0.136719 C 8.277344 0.0351562 8.144531 -0.0117188 8.011719 -0.0117188 C 8.007812 -0.0117188 8.003906 -0.015625 8 -0.015625 L 0.5 -0.015625 C 0.226562 -0.015625 0 0.210938 0 0.484375 C 0 0.488281 0.00390625 0.492188 0.00390625 0.496094 C 0.00390625 0.628906 0.0507812 0.761719 0.152344 0.863281 L 7.277344 7.984375 L 0.136719 15.125 C -0.0625 15.324219 -0.0625 15.648438 0.136719 15.847656 C 0.257812 15.96875 0.417969 16.007812 0.574219 15.984375 L 7.929688 15.984375 C 8.082031 16.007812 8.246094 15.96875 8.363281 15.847656 L 15.847656 8.363281 C 15.953125 8.257812 16 8.121094 15.996094 7.984375 C 16 7.851562 15.953125 7.714844 15.851562 7.609375 Z M 7.777344 14.984375 L 1.726562 14.984375 L 8.347656 8.363281 C 8.453125 8.261719 8.5 8.121094 8.496094 7.988281 C 8.5 7.851562 8.453125 7.714844 8.347656 7.609375 L 1.726562 0.984375 L 7.777344 0.984375 L 14.777344 7.984375 Z M 7.777344 14.984375 "/>
</g>
</svg>
